<svg width="401" height="189" viewBox="0 0 401 189" fill="none" xmlns="http://www.w3.org/2000/svg">
<path d="M43.0243 77.0957L0 151.025L30.7316 134.083L43.0243 77.0957Z" fill="#B42117"/>
<path d="M85.3857 151.025L-0.000804442 151.025L30.7308 134.083L85.3857 151.025Z" fill="#791500"/>
<path d="M130.988 74.3987L88.6256 0.0859826L87.8976 35.2341L130.988 74.3987Z" fill="#6C7F89"/>
<path d="M45.9326 74.2071L88.6258 0.0859312L87.8979 35.2341L45.9326 74.2071Z" fill="#3E5869"/>
<path d="M133.023 77.0957L176.047 151.025L145.315 134.083L133.023 77.0957Z" fill="#FCC11D"/>
<path d="M90.6611 151.025L176.048 151.025L145.316 134.083L90.6611 151.025Z" fill="#DC8B15"/>
<ellipse cx="87.5856" cy="60.1536" rx="12.2926" ry="12.3216" fill="#3E5869"/>
<ellipse cx="52.2438" cy="121.762" rx="12.2926" ry="12.3216" fill="#791500"/>
<ellipse cx="122.925" cy="121.762" rx="12.2926" ry="12.3216" fill="#DC8B15"/>
<path d="M99.6858 83.2805L77.8411 83.2805C77.176 83.2805 76.855 83.6113 76.855 84.2966V86.116C76.832 86.6123 77.0843 86.9194 77.6118 87.0376H80.7308V113.361L77.6118 114.046C77.0843 114.164 76.832 114.495 76.832 115.015V116.125C76.832 116.81 77.1531 117.141 77.8182 117.141H89.7898C90.4549 117.141 90.7759 116.81 90.7759 116.125V115.015C90.7759 114.471 90.5007 114.14 89.9732 114.046L84.9965 113.266V102.25H96.5553C97.2204 102.25 97.5415 101.381 97.5415 100.695V99.1358C97.5415 98.4505 97.2204 98.6588 96.5553 98.6588H84.9965V87.1321H96.8764V92.2233C96.9911 92.7667 97.3121 93.0503 97.8167 93.0503H99.6629C100.328 93.0503 100.649 92.7195 100.649 92.0342V84.2729C100.649 83.5876 100.328 83.2568 99.6629 83.2568L99.6858 83.2805Z" fill="#3E5869"/>
<path d="M205.174 66.2582C202.996 65.0906 200.787 64.5226 198.547 64.5226C195.738 64.5226 193.529 65.3746 191.92 67.0472C190.31 68.7197 189.49 70.8025 189.49 73.2955V83.5832H186.334C185.419 83.5832 184.977 84.025 184.977 84.9402V86.8021C184.977 87.7172 185.419 88.159 186.334 88.159H189.49V105.8L186.208 106.399C185.482 106.525 185.103 106.967 185.103 107.693V109.176C185.103 110.091 185.545 110.533 186.46 110.533H199.777C200.693 110.533 201.134 110.091 201.134 109.176V107.693C201.134 106.967 200.756 106.525 199.967 106.399L194.981 105.736V88.159H201.387C202.302 88.159 202.744 87.7172 202.744 86.8021V84.9402C202.744 84.025 202.302 83.5832 201.387 83.5832H194.981V74.2738C194.981 72.9484 195.391 71.8439 196.18 70.9287C196.969 70.0135 198.136 69.5717 199.651 69.5717C200.693 69.6033 201.86 69.8873 203.186 70.4554C203.911 70.7394 204.416 70.5816 204.669 70.0135L205.647 67.6783C205.931 67.0156 205.773 66.5422 205.205 66.2582H205.174ZM216.897 75.8201C217.875 75.8201 218.727 75.473 219.453 74.7787C220.179 74.0844 220.526 73.2324 220.526 72.2226C220.526 71.2127 220.179 70.3607 219.453 69.6664C218.727 68.9722 217.875 68.625 216.897 68.625C215.918 68.625 215.066 68.9722 214.372 69.698C213.678 70.4238 213.331 71.2758 213.331 72.2541C213.331 73.2008 213.678 74.0213 214.372 74.7156C215.066 75.4099 215.887 75.757 216.865 75.757L216.897 75.8201ZM222.956 106.336L219.642 105.736V89.0111L219.2 84.8771C219.106 84.3406 218.979 83.9935 218.822 83.8041C218.664 83.6148 218.348 83.5201 217.875 83.5201H211.469C210.554 83.5201 210.112 83.9619 210.112 84.8771V86.3603C210.112 87.0545 210.491 87.4648 211.216 87.591L214.183 88.159V105.736L210.838 106.336C210.112 106.462 209.733 106.904 209.733 107.63V109.113C209.733 110.028 210.175 110.47 211.09 110.47H222.735C223.65 110.47 224.092 110.028 224.092 109.113V107.63C224.092 106.904 223.713 106.462 222.987 106.336H222.956ZM261.187 106.399L257.842 105.8V93.3976C257.842 90.1471 256.8 87.5594 254.749 85.666C252.698 83.7726 250.268 82.8258 247.459 82.8258C244.177 82.8258 241.053 84.025 238.087 86.3918L237.834 84.9717C237.677 84.0566 237.203 83.6148 236.414 83.6148H230.071C229.156 83.6148 228.714 84.0566 228.714 84.9717V86.4549C228.714 87.1492 229.093 87.5594 229.819 87.6857L233.101 88.3168V105.831L229.819 106.431C229.093 106.557 228.714 106.999 228.714 107.725V109.208C228.714 110.123 229.156 110.565 230.071 110.565H237.172H237.235H241.716C242.631 110.565 243.073 110.123 243.073 109.208V107.725C243.073 106.999 242.694 106.557 241.968 106.431L238.529 105.831V90.7152C240.864 88.7902 243.294 87.8119 245.85 87.8119C247.743 87.8119 249.29 88.4115 250.52 89.6107C251.751 90.8099 252.351 92.5139 252.351 94.6914V109.239C252.351 110.155 252.793 110.596 253.708 110.596H256.422H256.485H260.934C261.85 110.596 262.291 110.155 262.291 109.239V107.756C262.291 107.03 261.913 106.589 261.124 106.462L261.187 106.399ZM295.694 106.399L292.412 105.8V69.414L292.034 66.6369C291.939 66.1004 291.813 65.7533 291.655 65.564C291.497 65.3746 291.181 65.2799 290.708 65.2799H283.86C282.945 65.2799 282.503 65.7217 282.503 66.6369V68.1517C282.472 68.8775 282.85 69.2877 283.639 69.414L286.953 70.0135V85.0033C285.059 83.6148 282.661 82.889 279.789 82.8574C275.781 82.8258 272.468 84.1512 269.88 86.8336C267.293 89.516 265.967 92.9242 265.936 97.0267C265.904 101.255 267.198 104.727 269.817 107.409C272.436 110.091 275.655 111.322 279.474 111.101C282.314 110.975 284.996 110.028 287.489 108.261L287.71 109.113C287.805 109.681 287.931 110.06 288.12 110.249C288.31 110.439 288.657 110.533 289.13 110.533H295.442C296.357 110.533 296.799 110.091 296.799 109.176V107.693C296.799 106.967 296.42 106.525 295.694 106.399ZM271.206 97.1529C271.206 94.4074 272.058 92.1353 273.793 90.368C275.529 88.6008 277.738 87.7172 280.452 87.7172C282.913 87.7172 285.059 88.4115 286.921 89.8V103.622C284.996 105.389 282.693 106.273 280.01 106.273C277.454 106.273 275.34 105.452 273.667 103.78C271.995 102.107 271.174 99.8984 271.174 97.1529H271.206ZM313.949 82.7943C310.194 82.7943 307.07 84.1828 304.577 86.9599C302.084 89.7369 300.822 93.1135 300.822 97.0582C300.822 101.098 302.115 104.506 304.672 107.251C307.228 109.997 310.573 111.385 314.675 111.385C318.052 111.385 321.05 110.47 323.638 108.671C324.427 108.135 324.616 107.535 324.237 106.841L323.196 104.853C322.817 104.19 322.249 104.064 321.46 104.443C319.22 105.8 316.947 106.462 314.612 106.462C312.056 106.462 310.005 105.673 308.459 104.096C306.912 102.518 306.092 100.53 305.997 98.0996H325.184C326.099 98.0996 326.541 97.6578 326.541 96.7426C326.604 96.4586 326.636 96.1115 326.636 95.7012C326.541 92.0406 325.279 88.9795 322.88 86.5181C320.482 84.0566 317.484 82.8258 313.918 82.8258L313.949 82.7943ZM313.981 87.4963C315.906 87.4963 317.579 88.1275 318.967 89.3898C320.356 90.6521 321.176 92.293 321.429 94.2812H306.439C306.786 92.2615 307.638 90.6205 309.027 89.3582C310.415 88.0959 312.056 87.4648 313.981 87.4648V87.4963ZM361.49 106.399L358.208 105.8V69.414L357.829 66.6369C357.735 66.1004 357.608 65.7533 357.451 65.564C357.293 65.3746 356.977 65.2799 356.504 65.2799H349.656C348.741 65.2799 348.299 65.7217 348.299 66.6369V68.1517C348.267 68.8775 348.646 69.2877 349.435 69.414L352.749 70.0135V85.0033C350.855 83.6148 348.457 82.889 345.585 82.8574C341.577 82.8258 338.264 84.1512 335.676 86.8336C333.088 89.516 331.763 92.9242 331.731 97.0267C331.7 101.255 332.994 104.727 335.613 107.409C338.232 110.091 341.451 111.322 345.27 111.101C348.11 110.975 350.792 110.028 353.285 108.261L353.506 109.113C353.601 109.681 353.727 110.06 353.916 110.249C354.106 110.439 354.453 110.533 354.926 110.533H361.238C362.153 110.533 362.595 110.091 362.595 109.176V107.693C362.595 106.967 362.216 106.525 361.49 106.399ZM337.001 97.1529C337.001 94.4074 337.854 92.1353 339.589 90.368C341.325 88.6008 343.534 87.7172 346.248 87.7172C348.709 87.7172 350.855 88.4115 352.717 89.8V103.622C350.792 105.389 348.488 106.273 345.806 106.273C343.25 106.273 341.136 105.452 339.463 103.78C337.79 102.107 336.97 99.8984 336.97 97.1529H337.001ZM397.323 106.399L394.419 105.894V89.0742L393.978 84.9402C393.946 84.4037 393.82 84.0566 393.631 83.8672C393.441 83.6779 393.094 83.5832 392.621 83.5832H385.836C384.921 83.5832 384.479 84.025 384.479 84.9402V86.4234C384.447 87.1176 384.826 87.5279 385.615 87.6541L388.929 88.2853V103.496C386.877 105.358 384.574 106.273 382.017 106.273C380.219 106.273 378.704 105.673 377.473 104.474C376.242 103.275 375.611 101.602 375.611 99.4566V89.0426L375.233 84.9086C375.138 84.3721 375.012 84.025 374.854 83.8357C374.696 83.6463 374.381 83.5517 373.907 83.5517H367.122C366.207 83.5517 365.765 83.9935 365.765 84.9086V86.3918C365.765 87.0861 366.144 87.4963 366.933 87.6226L370.152 88.2537V100.687C370.152 103.938 371.162 106.525 373.213 108.419C375.264 110.312 377.694 111.259 380.503 111.259C383.595 111.259 386.593 110.06 389.465 107.693L389.717 109.05C389.812 109.586 389.97 109.965 390.159 110.186C390.349 110.407 390.696 110.502 391.169 110.502H397.165C398.08 110.502 398.522 110.06 398.522 109.145V107.661C398.522 106.936 398.143 106.494 397.354 106.368L397.323 106.399Z" fill="#3F5465"/>
</svg>
