<svg width="496" height="232" viewBox="0 0 496 232" fill="none" xmlns="http://www.w3.org/2000/svg">
<path d="M53.2189 95.0332L0 186.266L38.0135 165.358L53.2189 95.0332Z" fill="#B42117"/>
<path d="M105.62 186.266L0.000706885 186.266L38.0142 165.358L105.62 186.266Z" fill="#791500"/>
<path d="M162.024 91.7051L109.624 5.231e-05L108.724 43.3744L162.024 91.7051Z" fill="#6C7F89"/>
<path d="M56.8159 91.4688L109.625 4.76895e-05L108.725 43.3744L56.8159 91.4688Z" fill="#3E5869"/>
<path d="M164.54 95.0332L217.759 186.266L179.745 165.358L164.54 95.0332Z" fill="#FCC11D"/>
<path d="M112.139 186.266L217.758 186.266L179.745 165.358L112.139 186.266Z" fill="#DC8B15"/>
<ellipse cx="108.338" cy="74.1263" rx="15.2054" ry="15.2054" fill="#3E5869"/>
<ellipse cx="64.6224" cy="150.153" rx="15.2054" ry="15.2054" fill="#791500"/>
<ellipse cx="152.054" cy="150.153" rx="15.2054" ry="15.2054" fill="#DC8B15"/>
<path d="M123.302 102.666L96.2814 102.666C95.4587 102.666 95.0616 103.074 95.0616 103.92V106.165C95.0332 106.777 95.3453 107.157 95.9977 107.302H99.8558V139.786L95.9977 140.632C95.3453 140.778 95.0332 141.186 95.0332 141.827V143.198C95.0332 144.043 95.4304 144.452 96.253 144.452H111.061C111.884 144.452 112.281 144.043 112.281 143.198V141.827C112.281 141.157 111.941 140.748 111.288 140.632L105.132 139.669V126.076H119.43C120.253 126.076 120.65 125.002 120.65 124.157V122.232C120.65 121.386 120.253 121.643 119.43 121.643H105.132V107.419H119.827V113.702C119.969 114.372 120.366 114.722 120.99 114.722H123.274C124.096 114.722 124.494 114.314 124.494 113.468V103.891C124.494 103.045 124.096 102.637 123.274 102.637L123.302 102.666Z" fill="#3E5869"/>
<path d="M253.747 81.7368C251.058 80.2946 248.329 79.5929 245.562 79.5929C242.093 79.5929 239.364 80.6454 237.376 82.7112C235.388 84.7771 234.375 87.3497 234.375 90.429V103.136H230.477C229.347 103.136 228.801 103.682 228.801 104.812V107.112C228.801 108.242 229.347 108.788 230.477 108.788H234.375V130.577L230.321 131.318C229.424 131.474 228.957 132.019 228.957 132.916V134.748C228.957 135.878 229.502 136.424 230.633 136.424H247.082C248.212 136.424 248.758 135.878 248.758 134.748V132.916C248.758 132.019 248.29 131.474 247.316 131.318L241.157 130.499V108.788H249.07C250.2 108.788 250.746 108.242 250.746 107.112V104.812C250.746 103.682 250.2 103.136 249.07 103.136H241.157V91.6374C241.157 90.0003 241.664 88.636 242.638 87.5056C243.613 86.3752 245.055 85.8295 246.926 85.8295C248.212 85.8685 249.654 86.2193 251.292 86.9209C252.188 87.2717 252.812 87.0769 253.124 86.3752L254.332 83.4908C254.683 82.6723 254.488 82.0876 253.786 81.7368H253.747ZM268.227 93.5473C269.435 93.5473 270.488 93.1185 271.384 92.261C272.281 91.4035 272.709 90.3511 272.709 89.1037C272.709 87.8564 272.281 86.804 271.384 85.9465C270.488 85.0889 269.435 84.6602 268.227 84.6602C267.019 84.6602 265.966 85.0889 265.109 85.9854C264.251 86.882 263.822 87.9344 263.822 89.1427C263.822 90.3121 264.251 91.3255 265.109 92.1831C265.966 93.0406 266.98 93.4694 268.188 93.4694L268.227 93.5473ZM275.711 131.24L271.618 130.499V109.84L271.072 104.734C270.955 104.072 270.8 103.643 270.605 103.409C270.41 103.175 270.02 103.058 269.435 103.058H261.523C260.392 103.058 259.847 103.604 259.847 104.734V106.566C259.847 107.424 260.314 107.93 261.211 108.086L264.875 108.788V130.499L260.743 131.24C259.847 131.396 259.379 131.941 259.379 132.838V134.67C259.379 135.8 259.924 136.346 261.055 136.346H275.438C276.568 136.346 277.114 135.8 277.114 134.67V132.838C277.114 131.941 276.646 131.396 275.75 131.24H275.711ZM322.933 131.318L318.801 130.577V115.258C318.801 111.244 317.515 108.047 314.981 105.709C312.447 103.37 309.446 102.201 305.977 102.201C301.923 102.201 298.064 103.682 294.4 106.605L294.089 104.851C293.894 103.721 293.309 103.175 292.334 103.175H284.5C283.369 103.175 282.824 103.721 282.824 104.851V106.683C282.824 107.541 283.291 108.047 284.188 108.203L288.242 108.983V130.616L284.188 131.357C283.291 131.513 282.824 132.058 282.824 132.955V134.787C282.824 135.917 283.369 136.463 284.5 136.463H293.27H293.348H298.883C300.013 136.463 300.559 135.917 300.559 134.787V132.955C300.559 132.058 300.091 131.513 299.195 131.357L294.946 130.616V111.945C297.83 109.568 300.832 108.359 303.989 108.359C306.328 108.359 308.238 109.1 309.758 110.581C311.278 112.062 312.019 114.167 312.019 116.857V134.826C312.019 135.956 312.564 136.502 313.695 136.502H317.047H317.125H322.621C323.751 136.502 324.297 135.956 324.297 134.826V132.994C324.297 132.097 323.829 131.551 322.855 131.396L322.933 131.318ZM365.555 131.318L361.501 130.577V85.6346L361.034 82.2045C360.917 81.5419 360.761 81.1131 360.566 80.8792C360.371 80.6454 359.981 80.5284 359.396 80.5284H350.938C349.808 80.5284 349.262 81.0741 349.262 82.2045V84.0755C349.223 84.972 349.691 85.4787 350.665 85.6346L354.758 86.3752V104.89C352.419 103.175 349.457 102.279 345.91 102.24C340.96 102.201 336.867 103.838 333.671 107.151C330.474 110.464 328.837 114.674 328.798 119.741C328.759 124.964 330.357 129.252 333.593 132.565C336.828 135.878 340.804 137.398 345.52 137.125C349.028 136.97 352.341 135.8 355.421 133.617L355.693 134.67C355.81 135.371 355.966 135.839 356.2 136.073C356.434 136.307 356.863 136.424 357.448 136.424H365.243C366.374 136.424 366.919 135.878 366.919 134.748V132.916C366.919 132.019 366.452 131.474 365.555 131.318ZM335.308 119.897C335.308 116.506 336.36 113.699 338.504 111.516C340.648 109.334 343.376 108.242 346.728 108.242C349.769 108.242 352.419 109.1 354.719 110.815V127.888C352.341 130.07 349.496 131.162 346.183 131.162C343.025 131.162 340.414 130.148 338.348 128.082C336.282 126.017 335.269 123.288 335.269 119.897H335.308ZM388.103 102.162C383.465 102.162 379.606 103.877 376.527 107.307C373.447 110.737 371.888 114.908 371.888 119.78C371.888 124.769 373.486 128.979 376.644 132.37C379.801 135.761 383.933 137.476 389 137.476C393.171 137.476 396.874 136.346 400.07 134.124C401.044 133.461 401.278 132.721 400.811 131.863L399.524 129.408C399.056 128.589 398.355 128.433 397.38 128.901C394.613 130.577 391.806 131.396 388.922 131.396C385.765 131.396 383.231 130.421 381.321 128.472C379.411 126.523 378.398 124.068 378.281 121.066H401.98C403.11 121.066 403.656 120.521 403.656 119.39C403.734 119.039 403.773 118.611 403.773 118.104C403.656 113.582 402.097 109.801 399.134 106.761C396.172 103.721 392.469 102.201 388.064 102.201L388.103 102.162ZM388.142 107.969C390.52 107.969 392.586 108.749 394.301 110.308C396.016 111.867 397.03 113.894 397.341 116.35H378.827C379.255 113.855 380.308 111.828 382.023 110.269C383.738 108.71 385.765 107.93 388.142 107.93V107.969ZM446.824 131.318L442.77 130.577V85.6346L442.303 82.2045C442.186 81.5419 442.03 81.1131 441.835 80.8792C441.64 80.6454 441.25 80.5284 440.665 80.5284H432.207C431.077 80.5284 430.531 81.0741 430.531 82.2045V84.0755C430.492 84.972 430.96 85.4787 431.934 85.6346L436.027 86.3752V104.89C433.688 103.175 430.726 102.279 427.179 102.24C422.228 102.201 418.136 103.838 414.939 107.151C411.743 110.464 410.106 114.674 410.067 119.741C410.028 124.964 411.626 129.252 414.862 132.565C418.097 135.878 422.073 137.398 426.789 137.125C430.297 136.97 433.61 135.8 436.69 133.617L436.962 134.67C437.079 135.371 437.235 135.839 437.469 136.073C437.703 136.307 438.132 136.424 438.716 136.424H446.512C447.643 136.424 448.188 135.878 448.188 134.748V132.916C448.188 132.019 447.721 131.474 446.824 131.318ZM416.577 119.897C416.577 116.506 417.629 113.699 419.773 111.516C421.917 109.334 424.645 108.242 427.997 108.242C431.038 108.242 433.688 109.1 435.988 110.815V127.888C433.61 130.07 430.765 131.162 427.452 131.162C424.294 131.162 421.683 130.148 419.617 128.082C417.551 126.017 416.538 123.288 416.538 119.897H416.577ZM491.084 131.318L487.497 130.694V109.918L486.952 104.812C486.913 104.15 486.757 103.721 486.523 103.487C486.289 103.253 485.86 103.136 485.276 103.136H476.895C475.765 103.136 475.219 103.682 475.219 104.812V106.644C475.18 107.502 475.648 108.008 476.622 108.164L480.715 108.944V127.732C478.182 130.031 475.336 131.162 472.179 131.162C469.957 131.162 468.086 130.421 466.566 128.94C465.046 127.459 464.266 125.393 464.266 122.742V109.879L463.798 104.773C463.682 104.111 463.526 103.682 463.331 103.448C463.136 103.214 462.746 103.097 462.161 103.097H453.781C452.651 103.097 452.105 103.643 452.105 104.773V106.605C452.105 107.463 452.573 107.969 453.547 108.125L457.523 108.905V124.262C457.523 128.277 458.77 131.474 461.304 133.812C463.837 136.151 466.839 137.32 470.308 137.32C474.128 137.32 477.831 135.839 481.378 132.916L481.69 134.592C481.807 135.254 482.001 135.722 482.235 135.995C482.469 136.268 482.898 136.385 483.483 136.385H490.889C492.019 136.385 492.565 135.839 492.565 134.709V132.877C492.565 131.98 492.097 131.435 491.122 131.279L491.084 131.318Z" fill="#3F5465"/>
</svg>
