<svg width="238" height="112" viewBox="0 0 238 112" fill="none" xmlns="http://www.w3.org/2000/svg">
<path d="M25.4833 45.5059L0 89.1915L18.2024 79.1802L25.4833 45.5059Z" fill="#B42117"/>
<path d="M50.5743 89.1914L-0.000224018 89.1914L18.2021 79.1801L50.5743 89.1914Z" fill="#791500"/>
<path d="M77.5835 43.912L52.4923 -6.16406e-05L52.0612 20.7693L77.5835 43.912Z" fill="#6C7F89"/>
<path d="M27.2052 43.7989L52.4924 -5.90614e-06L52.0613 20.7694L27.2052 43.7989Z" fill="#3E5869"/>
<path d="M78.7872 45.5059L104.271 89.1915L86.0681 79.1802L78.7872 45.5059Z" fill="#FCC11D"/>
<path d="M53.6962 89.1914L104.271 89.1914L86.0684 79.1801L53.6962 89.1914Z" fill="#DC8B15"/>
<ellipse cx="51.8766" cy="35.4948" rx="7.28095" ry="7.28095" fill="#3E5869"/>
<ellipse cx="30.944" cy="71.8991" rx="7.28095" ry="7.28095" fill="#791500"/>
<ellipse cx="72.8102" cy="71.8991" rx="7.28095" ry="7.28095" fill="#DC8B15"/>
<path d="M59.0422 49.1604L46.1035 49.1605C45.7096 49.1605 45.5194 49.356 45.5194 49.7609V50.836C45.5059 51.1292 45.6553 51.3107 45.9677 51.3806H47.8151V66.9351L45.9677 67.34C45.6553 67.4098 45.5059 67.6053 45.5059 67.9125V68.5687C45.5059 68.9736 45.696 69.1691 46.09 69.1691H53.1807C53.5747 69.1691 53.7648 68.9736 53.7648 68.5687V67.9125C53.7648 67.5913 53.6018 67.3958 53.2894 67.34L50.3417 66.8792V60.37H57.188C57.5819 60.37 57.7721 59.856 57.7721 59.451V58.5295C57.7721 58.1246 57.5819 58.2477 57.188 58.2477H50.3417V51.4364H57.3781V54.4448C57.4461 54.766 57.6362 54.9335 57.9351 54.9335H59.0286C59.4225 54.9335 59.6127 54.738 59.6127 54.3331V49.7469C59.6127 49.342 59.4225 49.1465 59.0286 49.1465L59.0422 49.1604Z" fill="#3E5869"/>
<path d="M121.505 39.5773C120.217 38.8867 118.911 38.5508 117.585 38.5508C115.924 38.5508 114.618 39.0547 113.666 40.0439C112.714 41.0332 112.229 42.265 112.229 43.7395V49.8242H110.362C109.821 49.8242 109.56 50.0855 109.56 50.6267V51.7279C109.56 52.2692 109.821 52.5305 110.362 52.5305H112.229V62.964L110.288 63.3186C109.858 63.3933 109.634 63.6546 109.634 64.0839V64.9611C109.634 65.5024 109.896 65.7637 110.437 65.7637H118.313C118.855 65.7637 119.116 65.5024 119.116 64.9611V64.0839C119.116 63.6546 118.892 63.3933 118.425 63.3186L115.476 62.9267V52.5305H119.265C119.806 52.5305 120.068 52.2692 120.068 51.7279V50.6267C120.068 50.0855 119.806 49.8242 119.265 49.8242H115.476V44.3181C115.476 43.5342 115.719 42.881 116.186 42.3397C116.652 41.7984 117.343 41.5371 118.239 41.5371C118.855 41.5558 119.545 41.7238 120.329 42.0597C120.758 42.2277 121.057 42.1344 121.206 41.7984L121.785 40.4172C121.953 40.0253 121.86 39.7453 121.524 39.5773H121.505ZM128.438 45.2327C129.017 45.2327 129.521 45.0274 129.95 44.6168C130.38 44.2061 130.585 43.7022 130.585 43.1049C130.585 42.5077 130.38 42.0037 129.95 41.5931C129.521 41.1825 129.017 40.9772 128.438 40.9772C127.86 40.9772 127.356 41.1825 126.945 41.6118C126.535 42.0411 126.329 42.545 126.329 43.1236C126.329 43.6835 126.535 44.1688 126.945 44.5794C127.356 44.99 127.841 45.1954 128.42 45.1954L128.438 45.2327ZM132.022 63.2813L130.062 62.9267V53.0345L129.801 50.5894C129.745 50.2721 129.67 50.0668 129.577 49.9548C129.484 49.8428 129.297 49.7868 129.017 49.7868H125.228C124.687 49.7868 124.426 50.0481 124.426 50.5894V51.4666C124.426 51.8773 124.65 52.1199 125.079 52.1946L126.833 52.5305V62.9267L124.855 63.2813C124.426 63.3559 124.202 63.6173 124.202 64.0465V64.9238C124.202 65.465 124.463 65.7263 125.004 65.7263H131.891C132.433 65.7263 132.694 65.465 132.694 64.9238V64.0465C132.694 63.6173 132.47 63.3559 132.041 63.2813H132.022ZM154.634 63.3186L152.655 62.964V55.6288C152.655 53.7064 152.039 52.1759 150.826 51.056C149.613 49.9361 148.176 49.3762 146.515 49.3762C144.574 49.3762 142.726 50.0855 140.971 51.4853L140.822 50.6454C140.729 50.1041 140.449 49.8428 139.982 49.8428H136.23C135.689 49.8428 135.428 50.1041 135.428 50.6454V51.5226C135.428 51.9333 135.652 52.1759 136.081 52.2505L138.022 52.6238V62.9827L136.081 63.3373C135.652 63.4119 135.428 63.6732 135.428 64.1025V64.9798C135.428 65.521 135.689 65.7823 136.23 65.7823H140.43H140.467H143.118C143.659 65.7823 143.92 65.521 143.92 64.9798V64.1025C143.92 63.6732 143.696 63.4119 143.267 63.3373L141.233 62.9827V54.0423C142.614 52.9038 144.051 52.3252 145.563 52.3252C146.683 52.3252 147.597 52.6798 148.325 53.3891C149.053 54.0983 149.408 55.1062 149.408 56.3941V64.9984C149.408 65.5397 149.669 65.801 150.21 65.801H151.815H151.853H154.484C155.026 65.801 155.287 65.5397 155.287 64.9984V64.1212C155.287 63.6919 155.063 63.4306 154.596 63.3559L154.634 63.3186ZM175.043 63.3186L173.102 62.964V41.4438L172.878 39.8013C172.822 39.484 172.747 39.2787 172.654 39.1667C172.561 39.0547 172.374 38.9987 172.094 38.9987H168.044C167.503 38.9987 167.241 39.26 167.241 39.8013V40.6972C167.223 41.1265 167.447 41.3691 167.913 41.4438L169.873 41.7984V50.6641C168.753 49.8428 167.335 49.4135 165.636 49.3949C163.266 49.3762 161.306 50.1601 159.775 51.7466C158.245 53.3331 157.461 55.3489 157.442 57.7753C157.424 60.2763 158.189 62.3294 159.738 63.9159C161.287 65.5024 163.191 66.2303 165.449 66.0996C167.129 66.025 168.716 65.465 170.19 64.4198L170.321 64.9238C170.377 65.2597 170.452 65.4837 170.564 65.5957C170.676 65.7077 170.881 65.7637 171.161 65.7637H174.894C175.435 65.7637 175.696 65.5024 175.696 64.9611V64.0839C175.696 63.6546 175.472 63.3933 175.043 63.3186ZM160.559 57.8499C160.559 56.2261 161.063 54.8822 162.09 53.837C163.116 52.7918 164.423 52.2692 166.028 52.2692C167.484 52.2692 168.753 52.6798 169.854 53.5011V61.6761C168.716 62.7214 167.353 63.244 165.767 63.244C164.255 63.244 163.004 62.7587 162.015 61.7695C161.026 60.7802 160.541 59.4737 160.541 57.8499H160.559ZM185.84 49.3575C183.619 49.3575 181.771 50.1788 180.297 51.8213C178.822 53.4637 178.076 55.4608 178.076 57.7939C178.076 60.183 178.841 62.1987 180.353 63.8226C181.865 65.4464 183.843 66.2676 186.269 66.2676C188.266 66.2676 190.04 65.7263 191.57 64.6625C192.037 64.3452 192.149 63.9905 191.925 63.5799L191.309 62.4041C191.085 62.0121 190.749 61.9374 190.282 62.1614C188.957 62.964 187.613 63.3559 186.232 63.3559C184.72 63.3559 183.507 62.8893 182.592 61.9561C181.678 61.0229 181.193 59.847 181.137 58.4098H192.485C193.026 58.4098 193.287 58.1485 193.287 57.6073C193.325 57.4393 193.343 57.234 193.343 56.9913C193.287 54.8263 192.541 53.0158 191.122 51.56C189.704 50.1041 187.931 49.3762 185.821 49.3762L185.84 49.3575ZM185.859 52.1386C186.997 52.1386 187.986 52.5119 188.808 53.2584C189.629 54.005 190.114 54.9756 190.264 56.1514H181.398C181.603 54.9569 182.107 53.9864 182.928 53.2398C183.75 52.4932 184.72 52.1199 185.859 52.1199V52.1386ZM213.958 63.3186L212.017 62.964V41.4438L211.793 39.8013C211.737 39.484 211.662 39.2787 211.569 39.1667C211.475 39.0547 211.289 38.9987 211.009 38.9987H206.959C206.417 38.9987 206.156 39.26 206.156 39.8013V40.6972C206.137 41.1265 206.361 41.3691 206.828 41.4438L208.788 41.7984V50.6641C207.668 49.8428 206.249 49.4135 204.551 49.3949C202.18 49.3762 200.221 50.1601 198.69 51.7466C197.16 53.3331 196.376 55.3489 196.357 57.7753C196.338 60.2763 197.104 62.3294 198.653 63.9159C200.202 65.5024 202.106 66.2303 204.364 66.0996C206.044 66.025 207.631 65.465 209.105 64.4198L209.236 64.9238C209.292 65.2597 209.366 65.4837 209.478 65.5957C209.59 65.7077 209.796 65.7637 210.076 65.7637H213.809C214.35 65.7637 214.611 65.5024 214.611 64.9611V64.0839C214.611 63.6546 214.387 63.3933 213.958 63.3186ZM199.474 57.8499C199.474 56.2261 199.978 54.8822 201.005 53.837C202.031 52.7918 203.338 52.2692 204.943 52.2692C206.399 52.2692 207.668 52.6798 208.769 53.5011V61.6761C207.631 62.7214 206.268 63.244 204.682 63.244C203.17 63.244 201.919 62.7587 200.93 61.7695C199.941 60.7802 199.455 59.4737 199.455 57.8499H199.474ZM235.151 63.3186L233.434 63.02V53.0718L233.173 50.6267C233.154 50.3094 233.079 50.1041 232.967 49.9921C232.855 49.8802 232.65 49.8242 232.37 49.8242H228.357C227.816 49.8242 227.555 50.0855 227.555 50.6267V51.504C227.536 51.9146 227.76 52.1572 228.226 52.2319L230.186 52.6052V61.6015C228.973 62.7027 227.611 63.244 226.099 63.244C225.035 63.244 224.139 62.8893 223.411 62.1801C222.683 61.4708 222.31 60.4816 222.31 59.2124V53.0531L222.086 50.6081C222.03 50.2908 221.955 50.0855 221.862 49.9735C221.769 49.8615 221.582 49.8055 221.302 49.8055H217.289C216.748 49.8055 216.486 50.0668 216.486 50.6081V51.4853C216.486 51.8959 216.71 52.1386 217.177 52.2132L219.081 52.5865V59.9403C219.081 61.8628 219.678 63.3933 220.891 64.5131C222.105 65.633 223.542 66.193 225.203 66.193C227.032 66.193 228.805 65.4837 230.504 64.0839L230.653 64.8864C230.709 65.2037 230.802 65.4277 230.914 65.5584C231.026 65.689 231.231 65.745 231.511 65.745H235.058C235.599 65.745 235.86 65.4837 235.86 64.9424V64.0652C235.86 63.6359 235.636 63.3746 235.17 63.3L235.151 63.3186Z" fill="#3F5465"/>
</svg>
