<svg width="130" height="60" viewBox="0 0 130 60" fill="none" xmlns="http://www.w3.org/2000/svg">
<path d="M14.7615 24.5771L0.998047 48.1717L10.8291 42.7646L14.7615 24.5771Z" fill="#B42117"/>
<path d="M28.3132 48.1721L0.997983 48.1722L10.829 42.7651L28.3132 48.1721Z" fill="#791500"/>
<path d="M42.9015 23.7164L29.3497 -0.000394118L29.1169 11.2171L42.9015 23.7164Z" fill="#6C7F89"/>
<path d="M15.6921 23.656L29.3497 0.000294851L29.1168 11.2178L15.6921 23.656Z" fill="#3E5869"/>
<path d="M43.5519 24.5771L57.3154 48.1717L47.4844 42.7646L43.5519 24.5771Z" fill="#FCC11D"/>
<path d="M30.0003 48.1721L57.3155 48.1722L47.4844 42.7651L30.0003 48.1721Z" fill="#DC8B15"/>
<ellipse cx="29.0164" cy="19.1707" rx="3.93242" ry="3.93242" fill="#3E5869"/>
<ellipse cx="17.7107" cy="38.8328" rx="3.93242" ry="3.93242" fill="#791500"/>
<ellipse cx="40.323" cy="38.8328" rx="3.93242" ry="3.93242" fill="#DC8B15"/>
<path d="M32.8871 26.5515L25.899 26.5515C25.6862 26.5515 25.5835 26.6571 25.5835 26.8758V27.4565C25.5762 27.6148 25.6569 27.7129 25.8256 27.7506H26.8234V36.1515L25.8256 36.3702C25.6569 36.4079 25.5762 36.5135 25.5762 36.6794V37.0339C25.5762 37.2526 25.6789 37.3581 25.8916 37.3581H29.7214C29.9341 37.3581 30.0368 37.2526 30.0368 37.0339V36.6794C30.0368 36.506 29.9488 36.4004 29.7801 36.3702L28.188 36.1214V32.6057H31.8857C32.0984 32.6057 32.2011 32.3281 32.2011 32.1094V31.6117C32.2011 31.393 32.0984 31.4595 31.8857 31.4595H28.188V27.7807H31.9884V29.4056C32.0251 29.579 32.1278 29.6695 32.2892 29.6695H32.8798C33.0925 29.6695 33.1952 29.5639 33.1952 29.3452V26.8682C33.1952 26.6495 33.0925 26.5439 32.8798 26.5439L32.8871 26.5515Z" fill="#3E5869"/>
<path d="M66.6229 21.5531C65.9274 21.1801 65.2217 20.9987 64.506 20.9987C63.6088 20.9987 62.9032 21.2708 62.3891 21.8051C61.8749 22.3394 61.6128 23.0047 61.6128 23.8011V27.0874H60.6048C60.3124 27.0874 60.1713 27.2285 60.1713 27.5209V28.1156C60.1713 28.408 60.3124 28.5491 60.6048 28.5491H61.6128V34.1842L60.5645 34.3757C60.3326 34.416 60.2116 34.5572 60.2116 34.789V35.2628C60.2116 35.5552 60.3528 35.6963 60.6451 35.6963H64.8991C65.1915 35.6963 65.3326 35.5552 65.3326 35.2628V34.789C65.3326 34.5572 65.2116 34.416 64.9596 34.3757L63.3669 34.164V28.5491H65.4133C65.7056 28.5491 65.8467 28.408 65.8467 28.1156V27.5209C65.8467 27.2285 65.7056 27.0874 65.4133 27.0874H63.3669V24.1136C63.3669 23.6902 63.4979 23.3374 63.75 23.045C64.002 22.7527 64.375 22.6116 64.8588 22.6116C65.1915 22.6217 65.5645 22.7124 65.9879 22.8938C66.2197 22.9846 66.381 22.9342 66.4617 22.7527L66.7742 22.0067C66.8649 21.795 66.8145 21.6438 66.633 21.5531H66.6229ZM70.3677 24.6075C70.6802 24.6075 70.9524 24.4967 71.1842 24.2749C71.4161 24.0531 71.527 23.7809 71.527 23.4583C71.527 23.1358 71.4161 22.8636 71.1842 22.6418C70.9524 22.42 70.6802 22.3092 70.3677 22.3092C70.0552 22.3092 69.783 22.42 69.5613 22.6519C69.3395 22.8838 69.2286 23.1559 69.2286 23.4684C69.2286 23.7708 69.3395 24.0329 69.5613 24.2547C69.783 24.4765 70.0451 24.5874 70.3576 24.5874L70.3677 24.6075ZM72.3032 34.3556L71.2447 34.164V28.8213L71.1036 27.5007C71.0734 27.3293 71.033 27.2184 70.9826 27.158C70.9322 27.0975 70.8314 27.0672 70.6802 27.0672H68.6338C68.3415 27.0672 68.2004 27.2084 68.2004 27.5007V27.9745C68.2004 28.1963 68.3213 28.3273 68.5532 28.3676L69.5008 28.5491V34.164L68.4322 34.3556C68.2004 34.3959 68.0794 34.537 68.0794 34.7689V35.2427C68.0794 35.535 68.2205 35.6761 68.5129 35.6761H72.2326C72.525 35.6761 72.6661 35.535 72.6661 35.2427V34.7689C72.6661 34.537 72.5451 34.3959 72.3133 34.3556H72.3032ZM84.5157 34.3757L83.4472 34.1842V30.2225C83.4472 29.1842 83.1145 28.3576 82.4593 27.7527C81.804 27.1479 81.0278 26.8455 80.1306 26.8455C79.0823 26.8455 78.0843 27.2285 77.1367 27.9846L77.056 27.5309C77.0056 27.2386 76.8544 27.0975 76.6024 27.0975H74.5762C74.2839 27.0975 74.1427 27.2386 74.1427 27.5309V28.0047C74.1427 28.2265 74.2637 28.3576 74.4955 28.3979L75.5439 28.5995V34.1943L74.4955 34.3858C74.2637 34.4261 74.1427 34.5673 74.1427 34.7991V35.2729C74.1427 35.5652 74.2839 35.7064 74.5762 35.7064H76.8443H76.8645H78.296C78.5883 35.7064 78.7294 35.5652 78.7294 35.2729V34.7991C78.7294 34.5673 78.6085 34.4261 78.3766 34.3858L77.2778 34.1943V29.3656C78.0238 28.7507 78.8 28.4382 79.6165 28.4382C80.2214 28.4382 80.7153 28.6297 81.1085 29.0128C81.5016 29.3959 81.6932 29.9402 81.6932 30.6358V35.283C81.6932 35.5753 81.8343 35.7165 82.1266 35.7165H82.9936H83.0137H84.4351C84.7274 35.7165 84.8686 35.5753 84.8686 35.283V34.8092C84.8686 34.5773 84.7476 34.4362 84.4956 34.3959L84.5157 34.3757ZM95.5388 34.3757L94.4904 34.1842V22.5612L94.3694 21.6741C94.3392 21.5027 94.2988 21.3918 94.2484 21.3313C94.198 21.2708 94.0972 21.2406 93.946 21.2406H91.7585C91.4662 21.2406 91.325 21.3817 91.325 21.6741V22.1579C91.315 22.3898 91.4359 22.5208 91.6879 22.5612L92.7464 22.7527V27.541C92.1416 27.0975 91.3754 26.8656 90.4581 26.8555C89.1778 26.8455 88.1194 27.2688 87.2928 28.1257C86.4661 28.9826 86.0428 30.0713 86.0327 31.3818C86.0226 32.7326 86.4359 33.8414 87.2726 34.6983C88.1093 35.5552 89.1375 35.9483 90.3573 35.8777C91.2645 35.8374 92.1214 35.535 92.9178 34.9705L92.9883 35.2427C93.0186 35.4241 93.0589 35.5451 93.1194 35.6056C93.1799 35.666 93.2908 35.6963 93.442 35.6963H95.4581C95.7505 35.6963 95.8916 35.5552 95.8916 35.2628V34.789C95.8916 34.5572 95.7706 34.416 95.5388 34.3757ZM87.7162 31.4221C87.7162 30.5451 87.9883 29.8193 88.5428 29.2547C89.0972 28.6902 89.8029 28.408 90.6698 28.408C91.4561 28.408 92.1416 28.6297 92.7363 29.0733V33.4886C92.1214 34.0531 91.3855 34.3354 90.5287 34.3354C89.7121 34.3354 89.0367 34.0733 88.5024 33.539C87.9682 33.0047 87.7061 32.2991 87.7061 31.4221H87.7162ZM101.37 26.8354C100.171 26.8354 99.1726 27.2789 98.3763 28.166C97.5799 29.0531 97.1767 30.1318 97.1767 31.3918C97.1767 32.6822 97.59 33.7709 98.4065 34.6479C99.223 35.5249 100.292 35.9685 101.602 35.9685C102.681 35.9685 103.638 35.6761 104.465 35.1015C104.717 34.9302 104.777 34.7386 104.657 34.5169L104.324 33.8818C104.203 33.6701 104.021 33.6298 103.769 33.7507C103.054 34.1842 102.328 34.3959 101.582 34.3959C100.765 34.3959 100.11 34.1439 99.6162 33.6398C99.1222 33.1358 98.8601 32.5007 98.8299 31.7245H104.959C105.251 31.7245 105.392 31.5834 105.392 31.291C105.413 31.2003 105.423 31.0894 105.423 30.9584C105.392 29.789 104.989 28.8112 104.223 28.0249C103.457 27.2386 102.499 26.8455 101.36 26.8455L101.37 26.8354ZM101.38 28.3374C101.995 28.3374 102.53 28.539 102.973 28.9422C103.417 29.3455 103.679 29.8697 103.759 30.5047H98.971C99.0819 29.8596 99.3541 29.3354 99.7976 28.9322C100.241 28.5289 100.765 28.3273 101.38 28.3273V28.3374ZM116.557 34.3757L115.508 34.1842V22.5612L115.387 21.6741C115.357 21.5027 115.317 21.3918 115.266 21.3313C115.216 21.2708 115.115 21.2406 114.964 21.2406H112.776C112.484 21.2406 112.343 21.3817 112.343 21.6741V22.1579C112.333 22.3898 112.454 22.5208 112.706 22.5612L113.764 22.7527V27.541C113.159 27.0975 112.393 26.8656 111.476 26.8555C110.196 26.8455 109.137 27.2688 108.311 28.1257C107.484 28.9826 107.061 30.0713 107.05 31.3818C107.04 32.7326 107.454 33.8414 108.29 34.6983C109.127 35.5552 110.155 35.9483 111.375 35.8777C112.282 35.8374 113.139 35.535 113.936 34.9705L114.006 35.2427C114.036 35.4241 114.077 35.5451 114.137 35.6056C114.198 35.666 114.309 35.6963 114.46 35.6963H116.476C116.768 35.6963 116.909 35.5552 116.909 35.2628V34.789C116.909 34.5572 116.788 34.416 116.557 34.3757ZM108.734 31.4221C108.734 30.5451 109.006 29.8193 109.561 29.2547C110.115 28.6902 110.821 28.408 111.688 28.408C112.474 28.408 113.159 28.6297 113.754 29.0733V33.4886C113.139 34.0531 112.403 34.3354 111.546 34.3354C110.73 34.3354 110.055 34.0733 109.52 33.539C108.986 33.0047 108.724 32.2991 108.724 31.4221H108.734ZM128.003 34.3757L127.076 34.2144V28.8414L126.934 27.5209C126.924 27.3495 126.884 27.2386 126.824 27.1781C126.763 27.1176 126.652 27.0874 126.501 27.0874H124.334C124.041 27.0874 123.9 27.2285 123.9 27.5209V27.9947C123.89 28.2164 124.011 28.3475 124.263 28.3878L125.322 28.5894V33.4483C124.666 34.0431 123.93 34.3354 123.114 34.3354C122.539 34.3354 122.055 34.1439 121.662 33.7608C121.269 33.3777 121.067 32.8435 121.067 32.158V28.8313L120.946 27.5108C120.916 27.3394 120.876 27.2285 120.826 27.168C120.775 27.1076 120.674 27.0773 120.523 27.0773H118.356C118.063 27.0773 117.922 27.2184 117.922 27.5108V27.9846C117.922 28.2063 118.043 28.3374 118.295 28.3777L119.324 28.5793V32.5511C119.324 33.5894 119.646 34.416 120.301 35.0209C120.957 35.6257 121.733 35.9281 122.63 35.9281C123.618 35.9281 124.576 35.5451 125.493 34.789L125.574 35.2225C125.604 35.3939 125.654 35.5148 125.715 35.5854C125.775 35.656 125.886 35.6862 126.037 35.6862H127.953C128.245 35.6862 128.386 35.5451 128.386 35.2527V34.7789C128.386 34.5471 128.265 34.406 128.013 34.3656L128.003 34.3757Z" fill="#3F5465"/>
</svg>
